<svg xmlns="http://www.w3.org/2000/svg" version="1.1" xmlns:xlink="http://www.w3.org/1999/xlink" xmlns:svgjs="http://svgjs.dev/svgjs" width="2000" height="424" viewBox="0 0 2000 424"><g transform="matrix(1,0,0,1,-1.2121212121212466,0.01285023915909278)"><svg viewBox="0 0 396 84" data-background-color="#fce44d" preserveAspectRatio="xMidYMid meet" height="424" width="2000" xmlns="http://www.w3.org/2000/svg" xmlns:xlink="http://www.w3.org/1999/xlink"><g id="tight-bounds" transform="matrix(1,0,0,1,0.2400000000000091,-0.0025458020975577256)"><svg viewBox="0 0 395.52 84.00509160419513" height="84.00509160419513" width="395.52"><g><svg viewBox="0 0 525.2855422128857 111.56619157552785" height="84.00509160419513" width="395.52"><g transform="matrix(1,0,0,1,129.76554221288572,40.36488246886842)"><svg viewBox="0 0 395.52 30.836426637791007" height="30.836426637791007" width="395.52"><g id="textblocktransform"><svg viewBox="0 0 395.52 30.836426637791007" height="30.836426637791007" width="395.52" id="textblock"><g><svg viewBox="0 0 395.52 30.836426637791007" height="30.836426637791007" width="395.52"><g transform="matrix(1,0,0,1,0,0)"><svg width="395.52" viewBox="3 -35.25 461.7 36" height="30.836426637791007" data-palette-color="#ffffff"><path d="M10.9-34.55Q17.15-34.55 20.43-31.78 23.7-29 23.7-23.6L23.7-23.6Q23.7-17.85 20.48-15 17.25-12.15 11.35-12.15L11.35-12.15 9.35-12.15 9.35 0 3 0 3-34.55 10.9-34.55ZM11-16.9Q14.25-16.9 15.7-18.4 17.15-19.9 17.15-23.55L17.15-23.55Q17.15-26.85 15.7-28.35 14.25-29.85 11.05-29.85L11.05-29.85 9.35-29.85 9.35-16.9 11-16.9ZM27.45-34.55L33.8-34.55 33.8 0 27.45 0 27.45-34.55ZM61.4-34.55L61.4 0 53.3 0 44.55-28.3Q44.95-24.7 45.17-21.68 45.4-18.65 45.4-14.5L45.4-14.5 45.4 0 39.8 0 39.8-34.55 47.84-34.55 56.59-6.25Q56.3-8.05 56.02-11.35 55.75-14.65 55.75-18.05L55.75-18.05 55.75-34.55 61.4-34.55ZM67.39-34.55L84.54-34.55 83.89-29.8 73.74-29.8 73.74-19.9 82.59-19.9 82.59-15.2 73.74-15.2 73.74-4.8 84.54-4.8 84.54 0 67.39 0 67.39-34.55ZM110.99 0L104.54 0 102.84-8.1 93.94-8.1 92.29 0 85.94 0 94.64-34.55 102.34-34.55 110.99 0ZM98.39-29.7L94.94-12.9 101.89-12.9 98.39-29.7ZM121.79-34.55Q128.04-34.55 131.31-31.78 134.59-29 134.59-23.6L134.59-23.6Q134.59-17.85 131.36-15 128.14-12.15 122.24-12.15L122.24-12.15 120.24-12.15 120.24 0 113.89 0 113.89-34.55 121.79-34.55ZM121.89-16.9Q125.14-16.9 126.59-18.4 128.04-19.9 128.04-23.55L128.04-23.55Q128.04-26.85 126.59-28.35 125.14-29.85 121.94-29.85L121.94-29.85 120.24-29.85 120.24-16.9 121.89-16.9ZM146.24-34.55Q152.49-34.55 155.76-31.78 159.04-29 159.04-23.6L159.04-23.6Q159.04-17.85 155.81-15 152.59-12.15 146.69-12.15L146.69-12.15 144.69-12.15 144.69 0 138.34 0 138.34-34.55 146.24-34.55ZM146.34-16.9Q149.59-16.9 151.04-18.4 152.49-19.9 152.49-23.55L152.49-23.55Q152.49-26.85 151.04-28.35 149.59-29.85 146.39-29.85L146.39-29.85 144.69-29.85 144.69-16.9 146.34-16.9ZM162.78-34.55L169.13-34.55 169.13-5.25 180.28-5.25 179.58 0 162.78 0 162.78-34.55ZM183.63-34.55L200.78-34.55 200.13-29.8 189.98-29.8 189.98-19.9 198.83-19.9 198.83-15.2 189.98-15.2 189.98-4.8 200.78-4.8 200.78 0 183.63 0 183.63-34.55ZM212.53-34.55L234.08-34.55 233.38-29.55 226.28-29.55 226.28 0 219.93 0 219.93-29.55 212.53-29.55 212.53-34.55ZM237.12-34.55L254.27-34.55 253.62-29.8 243.47-29.8 243.47-19.9 252.32-19.9 252.32-15.2 243.47-15.2 243.47-4.8 254.27-4.8 254.27 0 237.12 0 237.12-34.55ZM270.27-35.25Q272.92-35.25 274.95-34.38 276.97-33.5 278.87-31.7L278.87-31.7 275.82-28.05Q274.52-29.25 273.3-29.83 272.07-30.4 270.62-30.4L270.62-30.4Q267.62-30.4 265.92-27.4 264.22-24.4 264.22-17.35L264.22-17.35Q264.22-10.4 265.92-7.38 267.62-4.35 270.72-4.35L270.72-4.35Q272.27-4.35 273.42-4.98 274.57-5.6 276.12-6.9L276.12-6.9 279.17-3.4Q277.57-1.6 275.32-0.43 273.07 0.75 270.27 0.75L270.27 0.75Q264.42 0.75 260.97-3.8 257.52-8.35 257.52-17.35L257.52-17.35Q257.52-23.3 259.17-27.3 260.82-31.3 263.7-33.27 266.57-35.25 270.27-35.25L270.27-35.25ZM304.27 0L297.87 0 297.87-15.5 288.92-15.5 288.92 0 282.57 0 282.57-34.55 288.92-34.55 288.92-20.6 297.87-20.6 297.87-34.55 304.27-34.55 304.27 0ZM331.82-34.55L331.82 0 323.72 0 314.97-28.3Q315.37-24.7 315.59-21.68 315.82-18.65 315.82-14.5L315.82-14.5 315.82 0 310.22 0 310.22-34.55 318.27-34.55 327.02-6.25Q326.72-8.05 326.44-11.35 326.17-14.65 326.17-18.05L326.17-18.05 326.17-34.55 331.82-34.55ZM349.26-35.25Q355.36-35.25 358.66-30.8 361.96-26.35 361.96-17.3L361.96-17.3Q361.96-8.35 358.66-3.8 355.36 0.75 349.26 0.75L349.26 0.75Q343.21 0.75 339.89-3.75 336.56-8.25 336.56-17.25L336.56-17.25Q336.56-26.15 339.89-30.7 343.21-35.25 349.26-35.25L349.26-35.25ZM349.26-30.45Q346.21-30.45 344.74-27.4 343.26-24.35 343.26-17.25L343.26-17.25Q343.26-10.1 344.76-7.13 346.26-4.15 349.26-4.15L349.26-4.15Q352.36-4.15 353.84-7.1 355.31-10.05 355.31-17.3L355.31-17.3Q355.31-24.4 353.81-27.43 352.31-30.45 349.26-30.45L349.26-30.45ZM366.71-34.55L373.06-34.55 373.06-5.25 384.21-5.25 383.51 0 366.71 0 366.71-34.55ZM399.01-35.25Q405.11-35.25 408.41-30.8 411.71-26.35 411.71-17.3L411.71-17.3Q411.71-8.35 408.41-3.8 405.11 0.75 399.01 0.75L399.01 0.75Q392.96 0.75 389.63-3.75 386.31-8.25 386.31-17.25L386.31-17.25Q386.31-26.15 389.63-30.7 392.96-35.25 399.01-35.25L399.01-35.25ZM399.01-30.45Q395.96-30.45 394.48-27.4 393.01-24.35 393.01-17.25L393.01-17.25Q393.01-10.1 394.51-7.13 396.01-4.15 399.01-4.15L399.01-4.15Q402.11-4.15 403.58-7.1 405.06-10.05 405.06-17.3L405.06-17.3Q405.06-24.4 403.56-27.43 402.06-30.45 399.01-30.45L399.01-30.45ZM428.71-35.25Q431.56-35.25 433.81-34.23 436.06-33.2 438.06-31.25L438.06-31.25 434.86-27.95Q433.31-29.3 431.96-29.88 430.61-30.45 428.91-30.45L428.91-30.45Q425.61-30.45 423.73-27.5 421.86-24.55 421.86-17.3L421.86-17.3Q421.86-12.2 422.53-9.33 423.21-6.45 424.53-5.3 425.86-4.15 428.01-4.15L428.01-4.15Q430.26-4.15 432.11-5.4L432.11-5.4 432.11-14.75 428.21-14.75 427.56-19.5 438.16-19.5 438.16-2.6Q436.01-1.05 433.38-0.18 430.76 0.7 428.06 0.7L428.06 0.7Q421.61 0.7 418.41-3.68 415.21-8.05 415.21-17.3L415.21-17.3Q415.21-23.3 416.98-27.33 418.76-31.35 421.81-33.3 424.86-35.25 428.71-35.25L428.71-35.25ZM458.2-34.55L464.7-34.55 455.6-13.15 455.6 0 449.2 0 449.2-13.1 440.1-34.55 446.85-34.55 452.5-18.3 458.2-34.55Z" opacity="1" transform="matrix(1,0,0,1,0,0)" fill="#ffffff" class="wordmark-text-0" data-fill-palette-color="primary" id="text-0"></path></svg></g></svg></g></svg></g></svg></g><g><svg viewBox="0 0 111.56619157552785 111.56619157552785" height="111.56619157552785" width="111.56619157552785"><g><svg viewBox="0 0 111.56619157552785 111.56619157552785" height="111.56619157552785" width="111.56619157552785"><g transform="matrix(1,0,0,1,44.095805326399,29.486692249692855)"><svg viewBox="0 0 23.374580922729848 52.592807076142144" height="52.592807076142144" width="23.374580922729848"><g><svg xmlns="http://www.w3.org/2000/svg" xmlns:xlink="http://www.w3.org/1999/xlink" version="1.1" x="0" y="0" viewBox="30 5 40 89.99999999999999" enable-background="new 0 0 100 100" xml:space="preserve" height="52.592807076142144" width="23.374580922729848" class="icon-z$-0" data-fill-palette-color="accent" id="z$-0"><path d="M30 30l15 5L30 20l15 5L35.3 5 50 20 64.7 5 55 25l15-5L55 35l15-5L50 50 30 30zM36.2 69.3L42 75l5.8-5.8L42 63.5 36.2 69.3zM35.4 52.5L42 59l5.8-5.8L41 46.5C38.9 48 37 50 35.4 52.5zM33.9 67l5.8-5.8-5.9-5.9c-1.3 2.6-2.2 5.6-2.7 8.8L33.9 67zM33.9 71.6l-2.8 2.8c0.5 3.2 1.4 6.2 2.7 8.8l5.9-5.9L33.9 71.6zM63.8 69.3L58 63.5l-5.8 5.8L58 75 63.8 69.3zM44.2 61.2L50 67l5.8-5.8L50 55.5 44.2 61.2zM66.1 71.6l-5.8 5.8 5.9 5.9c1.3-2.6 2.2-5.6 2.7-8.8L66.1 71.6zM58 59l6.5-6.5C63 50 61.1 48 59 46.5l-6.7 6.7L58 59zM42 79.6l-6.5 6.5c1.6 2.4 3.5 4.4 5.6 5.9l6.7-6.7L42 79.6zM50 87.6l-6.1 6.1c1.9 0.8 3.9 1.3 6.1 1.3s4.2-0.5 6.1-1.3L50 87.6zM66.1 67l2.8-2.8c-0.5-3.2-1.4-6.2-2.7-8.8l-5.9 5.9L66.1 67zM55.8 77.3L50 71.6l-5.8 5.8 5.8 5.8L55.8 77.3zM64.6 86.1L58 79.6l-5.8 5.8L59 92C61.1 90.5 63 88.5 64.6 86.1z" fill="#ffffff" data-fill-palette-color="accent"></path></svg></g></svg></g><g><path d="M1.905 39.228c0.327-1.019 0.801-1.723 1.422-2.11 0.629-0.392 1.383-0.446 2.263-0.164v0c0.937 0.301 1.552 0.788 1.846 1.463 0.3 0.676 0.295 1.495-0.014 2.457v0l-0.159 0.494 2.973 0.955-0.501 1.558-8.452-2.715zM6.226 40.585c0.169-0.526 0.172-0.947 0.008-1.265-0.172-0.314-0.555-0.566-1.15-0.758v0c-0.538-0.173-0.968-0.182-1.291-0.026-0.318 0.163-0.56 0.505-0.727 1.023v0l-0.134 0.418 3.163 1.016z" fill="#ffffff" data-fill-palette-color="accent"></path><path d="M3.829 33.981l0.656-1.499 8.132 3.562-0.656 1.499z" fill="#ffffff" data-fill-palette-color="accent"></path><path d="M8.667 25.068l7.667 4.476-1.051 1.801-7.412-1.728c0.562 0.251 1.077 0.49 1.545 0.717 0.468 0.227 1.009 0.52 1.624 0.879v0l3.222 1.881-0.729 1.249-7.667-4.476 1.046-1.792 7.411 1.728c-0.288-0.114-0.692-0.292-1.212-0.535-0.512-0.245-1.017-0.513-1.517-0.804v0l-3.661-2.138z" fill="#ffffff" data-fill-palette-color="accent"></path><path d="M10.52 22.576l2.741-3.453 0.854 0.882-1.625 2.047 1.992 1.581 1.414-1.781 0.946 0.751-1.415 1.781 2.094 1.662 1.725-2.172 0.968 0.769-2.741 3.454z" fill="#ffffff" data-fill-palette-color="accent"></path><path d="M25.373 19.764l-1.205 1.136-1.749-1.217-1.663 1.567 1.118 1.811-1.191 1.122-4.455-8 1.437-1.355zM17.78 16.433l2.316 3.753 1.307-1.232z" fill="#ffffff" data-fill-palette-color="accent"></path><path d="M22.686 10.728c0.867-0.628 1.666-0.914 2.395-0.859 0.739 0.057 1.379 0.459 1.921 1.209v0c0.577 0.797 0.784 1.555 0.621 2.271-0.159 0.722-0.648 1.38-1.467 1.972v0l-0.42 0.304 1.83 2.53-1.325 0.959-5.204-7.193zM25.364 14.38c0.447-0.324 0.699-0.662 0.756-1.015 0.047-0.354-0.112-0.785-0.478-1.291v0c-0.331-0.458-0.673-0.72-1.025-0.786-0.353-0.057-0.75 0.075-1.192 0.395v0l-0.355 0.257 1.947 2.691z" fill="#ffffff" data-fill-palette-color="accent"></path><path d="M29.325 6.613c0.946-0.502 1.776-0.676 2.49-0.522 0.724 0.158 1.303 0.645 1.737 1.461v0c0.462 0.869 0.563 1.648 0.303 2.336-0.257 0.694-0.831 1.278-1.723 1.751v0l-0.459 0.244 1.466 2.757-1.445 0.768-4.166-7.84zM31.476 10.598c0.487-0.259 0.783-0.559 0.888-0.901 0.096-0.344-0.003-0.793-0.296-1.345v0c-0.265-0.499-0.567-0.806-0.907-0.919-0.342-0.105-0.753-0.029-1.234 0.227v0l-0.388 0.206 1.559 2.933z" fill="#ffffff" data-fill-palette-color="accent"></path><path d="M34.514 4.157l1.532-0.574 2.641 7.053 2.681-1.004 0.305 1.324-4.045 1.515z" fill="#ffffff" data-fill-palette-color="accent"></path><path d="M40.951 1.991l4.284-1.044 0.133 1.22-2.539 0.619 0.602 2.472 2.21-0.539 0.286 1.173-2.21 0.538 0.633 2.598 2.694-0.657 0.293 1.202-4.284 1.044z" fill="#ffffff" data-fill-palette-color="accent"></path><path d="M50.874 0.217l5.542-0.217-0.129 1.283-1.825 0.071 0.297 7.596-1.634 0.064-0.297-7.596-1.904 0.074z" fill="#ffffff" data-fill-palette-color="accent"></path><path d="M58.602 0.095l4.397 0.332-0.251 1.202-2.606-0.197-0.192 2.536 2.268 0.172-0.091 1.203-2.268-0.171-0.202 2.666 2.765 0.209-0.093 1.233-4.397-0.332z" fill="#ffffff" data-fill-palette-color="accent"></path><path d="M68.577 1.337c0.442 0.095 0.816 0.253 1.123 0.475 0.306 0.222 0.587 0.517 0.841 0.884v0l-0.957 0.754c-0.178-0.249-0.357-0.444-0.538-0.584-0.187-0.142-0.401-0.239-0.642-0.291v0c-0.507-0.109-0.955 0.061-1.343 0.508-0.393 0.439-0.717 1.251-0.97 2.435v0c-0.249 1.164-0.285 2.03-0.108 2.599 0.171 0.567 0.517 0.906 1.037 1.017v0c0.26 0.056 0.499 0.052 0.716-0.01 0.217-0.062 0.477-0.177 0.778-0.343v0l0.582 1.043c-0.332 0.249-0.708 0.43-1.126 0.544-0.419 0.114-0.863 0.121-1.331 0.021v0c-0.982-0.21-1.681-0.758-2.096-1.642-0.416-0.885-0.462-2.081-0.14-3.59v0c0.214-1.001 0.533-1.807 0.956-2.417 0.417-0.611 0.901-1.031 1.453-1.26 0.552-0.229 1.14-0.276 1.765-0.143z" fill="#ffffff" data-fill-palette-color="accent"></path><path d="M75.294 12.985l-1.549-0.559 1.351-3.744-2.168-0.781-1.35 3.744-1.539-0.555 3.012-8.352 1.539 0.555-1.215 3.369 2.167 0.782 1.215-3.369 1.549 0.558z" fill="#ffffff" data-fill-palette-color="accent"></path><path d="M86.003 8.698l-4.257 7.791-1.83-0.999 1.518-7.458c-0.235 0.569-0.459 1.09-0.673 1.564-0.214 0.474-0.491 1.024-0.833 1.649v0l-1.789 3.274-1.269-0.694 4.257-7.791 1.821 0.995-1.517 7.458c0.106-0.291 0.273-0.7 0.5-1.227 0.23-0.518 0.484-1.031 0.761-1.54v0l2.033-3.72z" fill="#ffffff" data-fill-palette-color="accent"></path><path d="M91.063 12.223c0.828 0.647 1.229 1.446 1.203 2.397-0.026 0.951-0.515 2.036-1.469 3.257v0c-0.946 1.21-1.881 1.948-2.806 2.213-0.925 0.265-1.801 0.074-2.628-0.573v0c-0.817-0.639-1.211-1.436-1.182-2.392 0.024-0.96 0.512-2.048 1.461-3.263v0c0.938-1.2 1.871-1.93 2.802-2.192 0.929-0.27 1.802-0.086 2.619 0.553zM90.301 13.198c-0.409-0.319-0.874-0.35-1.397-0.092-0.519 0.253-1.152 0.859-1.902 1.818v0c-0.758 0.969-1.192 1.731-1.304 2.285-0.111 0.563 0.035 1.002 0.439 1.318v0c0.419 0.328 0.884 0.37 1.394 0.127 0.51-0.243 1.148-0.854 1.914-1.833v0c0.749-0.959 1.184-1.721 1.304-2.285 0.115-0.568-0.034-1.014-0.448-1.338z" fill="#ffffff" data-fill-palette-color="accent"></path><path d="M95.51 16.316l1.135 1.178-5.425 5.225 1.986 2.062-1.094 0.805-2.996-3.111z" fill="#ffffff" data-fill-palette-color="accent"></path><path d="M101.988 23.737c0.616 0.851 0.78 1.73 0.492 2.636-0.288 0.906-1.059 1.814-2.314 2.723v0c-1.244 0.901-2.347 1.351-3.309 1.349-0.962-0.002-1.751-0.428-2.367-1.279v0c-0.608-0.84-0.766-1.716-0.473-2.626 0.289-0.916 1.059-1.826 2.309-2.73v0c1.234-0.893 2.333-1.336 3.299-1.33 0.967-0.002 1.755 0.417 2.363 1.257zM100.986 24.463c-0.304-0.42-0.743-0.579-1.317-0.475-0.568 0.1-1.345 0.506-2.331 1.219v0c-0.997 0.722-1.625 1.333-1.887 1.834-0.263 0.51-0.244 0.973 0.057 1.388v0c0.312 0.431 0.747 0.601 1.304 0.509 0.558-0.092 1.34-0.502 2.348-1.232v0c0.986-0.714 1.615-1.325 1.886-1.834 0.268-0.514 0.248-0.984-0.06-1.409z" fill="#ffffff" data-fill-palette-color="accent"></path><path d="M106.755 31.692c0.224 0.438 0.342 0.867 0.355 1.287 0.022 0.422-0.04 0.864-0.184 1.326v0l-1.128-0.342c0.086-0.343 0.121-0.641 0.104-0.893-0.017-0.253-0.092-0.509-0.226-0.77v0c-0.257-0.503-0.684-0.782-1.278-0.837-0.598-0.06-1.451 0.193-2.559 0.759v0c-0.782 0.4-1.364 0.765-1.748 1.095-0.387 0.325-0.615 0.632-0.683 0.921-0.072 0.298-0.024 0.61 0.142 0.936v0c0.176 0.343 0.431 0.609 0.765 0.796v0l2.141-1.094-0.459-0.897 1.016-0.71 1.244 2.434-3.873 1.979c-0.406-0.211-0.776-0.481-1.109-0.811-0.342-0.333-0.619-0.707-0.831-1.121v0c-0.502-0.983-0.543-1.888-0.122-2.716 0.412-0.83 1.326-1.607 2.741-2.331v0c0.918-0.469 1.751-0.723 2.5-0.762 0.755-0.042 1.399 0.092 1.931 0.402 0.541 0.313 0.961 0.763 1.261 1.349z" fill="#ffffff" data-fill-palette-color="accent"></path><path d="M109.944 40.338l0.524 1.592-5.954-0.508-3.212 1.058-0.515-1.564 3.203-1.054 4.5-3.939 0.543 1.649-3.508 2.677z" fill="#ffffff" data-fill-palette-color="accent"></path><path d="M12.336 71.142c0.327 1.019 0.352 1.867 0.073 2.544-0.283 0.685-0.865 1.168-1.745 1.451v0c-0.937 0.301-1.721 0.263-2.352-0.115-0.637-0.375-1.111-1.044-1.42-2.006v0l-0.158-0.494-2.973 0.955-0.5-1.557 8.453-2.715zM8.033 72.556c0.169 0.526 0.412 0.87 0.73 1.033 0.322 0.155 0.781 0.137 1.376-0.054v0c0.538-0.173 0.893-0.416 1.065-0.73 0.163-0.318 0.162-0.736-0.005-1.256v0l-0.134-0.418-3.163 1.016z" fill="#ffffff" data-fill-palette-color="accent"></path><path d="M13.864 75.344l0.657 1.499-8.132 3.562-0.657-1.499z" fill="#ffffff" data-fill-palette-color="accent"></path><path d="M18.129 83.129l-7.668 4.476-1.051-1.801 5.149-5.604c-0.495 0.366-0.956 0.697-1.384 0.992-0.428 0.296-0.949 0.623-1.564 0.982v0l-3.222 1.881-0.729-1.249 7.667-4.476 1.046 1.792-5.148 5.605c0.241-0.194 0.595-0.459 1.061-0.793 0.465-0.325 0.947-0.634 1.447-0.926v0l3.661-2.137z" fill="#ffffff" data-fill-palette-color="accent"></path><path d="M19.1 84.332l2.742 3.453-1.053 0.632-1.625-2.047-1.992 1.582 1.414 1.781-0.945 0.751-1.414-1.782-2.094 1.663 1.724 2.172-0.969 0.769-2.741-3.453z" fill="#ffffff" data-fill-palette-color="accent"></path><path d="M20.709 98.906l-1.205-1.136 1.111-1.818-1.663-1.567-1.742 1.224-1.191-1.122 7.722-4.923 1.438 1.355zM23.583 91.129l-3.608 2.534 1.307 1.232z" fill="#ffffff" data-fill-palette-color="accent"></path><path d="M29.107 94.116c0.867 0.628 1.389 1.296 1.565 2.006 0.177 0.719-0.005 1.453-0.546 2.203v0c-0.577 0.797-1.231 1.231-1.963 1.301-0.736 0.075-1.513-0.183-2.332-0.776v0l-0.421-0.304-1.83 2.529-1.325-0.959 5.204-7.193zM26.477 97.803c0.447 0.324 0.847 0.457 1.2 0.4 0.351-0.066 0.71-0.352 1.077-0.858v0c0.331-0.458 0.473-0.864 0.426-1.219-0.057-0.353-0.306-0.689-0.748-1.009v0l-0.355-0.257-1.948 2.691z" fill="#ffffff" data-fill-palette-color="accent"></path><path d="M34.466 97.433c0.946 0.502 1.554 1.093 1.826 1.772 0.274 0.688 0.195 1.44-0.239 2.257v0c-0.462 0.869-1.05 1.389-1.766 1.558-0.718 0.176-1.524 0.026-2.416-0.448v0l-0.458-0.243-1.465 2.757-1.445-0.768 4.166-7.84zM32.367 101.446c0.487 0.259 0.902 0.336 1.244 0.232 0.339-0.114 0.655-0.446 0.948-0.998v0c0.265-0.499 0.35-0.921 0.255-1.266-0.105-0.342-0.398-0.641-0.879-0.896v0l-0.388-0.206-1.559 2.933z" fill="#ffffff" data-fill-palette-color="accent"></path><path d="M38.356 99.303l1.532 0.574-2.641 7.053 2.681 1.004-0.641 1.199-4.045-1.515z" fill="#ffffff" data-fill-palette-color="accent"></path><path d="M43.545 101.085l4.284 1.044-0.443 1.145-2.54-0.619-0.602 2.471 2.21 0.539-0.286 1.172-2.21-0.538-0.632 2.597 2.694 0.657-0.293 1.202-4.284-1.044z" fill="#ffffff" data-fill-palette-color="accent"></path><path d="M51.302 102.557l5.542 0.216-0.229 1.269-1.824-0.071-0.297 7.595-1.635-0.064 0.297-7.595-1.904-0.075z" fill="#ffffff" data-fill-palette-color="accent"></path><path d="M57.775 102.701l4.397-0.332-0.067 1.225-2.606 0.197 0.192 2.537 2.268-0.172 0.091 1.204-2.268 0.171 0.201 2.666 2.766-0.209 0.093 1.233-4.396 0.333z" fill="#ffffff" data-fill-palette-color="accent"></path><path d="M66.204 101.3c0.442-0.095 0.848-0.103 1.219-0.027 0.37 0.077 0.747 0.231 1.129 0.463v0l-0.564 1.079c-0.264-0.154-0.508-0.259-0.73-0.313-0.229-0.053-0.464-0.054-0.705-0.002v0c-0.507 0.109-0.846 0.446-1.017 1.014-0.179 0.562-0.142 1.435 0.111 2.618v0c0.249 1.164 0.571 1.969 0.966 2.415 0.388 0.447 0.842 0.615 1.363 0.504v0c0.26-0.056 0.477-0.156 0.649-0.302 0.173-0.146 0.362-0.356 0.569-0.632v0l0.958 0.713c-0.201 0.363-0.469 0.682-0.804 0.958-0.335 0.276-0.737 0.464-1.206 0.564v0c-0.982 0.21-1.844-0.003-2.585-0.64-0.742-0.637-1.274-1.71-1.597-3.219v0c-0.214-1.001-0.253-1.867-0.117-2.596 0.13-0.728 0.4-1.31 0.81-1.745 0.41-0.435 0.927-0.719 1.551-0.852z" fill="#ffffff" data-fill-palette-color="accent"></path><path d="M77.601 107.133l-1.549 0.558-1.35-3.744-2.168 0.782 1.351 3.744-1.539 0.555-3.012-8.352 1.539-0.555 1.215 3.369 2.167-0.782-1.215-3.368 1.549-0.559z" fill="#ffffff" data-fill-palette-color="accent"></path><path d="M80.75 95.408l4.257 7.791-1.83 1-5.456-5.306c0.352 0.505 0.669 0.976 0.953 1.412 0.284 0.436 0.596 0.966 0.937 1.591v0l1.789 3.274-1.269 0.693-4.257-7.791 1.821-0.995 5.456 5.306c-0.188-0.246-0.442-0.607-0.763-1.084-0.312-0.474-0.607-0.964-0.883-1.472v0l-2.033-3.721z" fill="#ffffff" data-fill-palette-color="accent"></path><path d="M84.083 92.566c0.828-0.647 1.7-0.843 2.617-0.588 0.916 0.255 1.852 0.992 2.805 2.213v0c0.946 1.21 1.436 2.296 1.47 3.257 0.034 0.961-0.363 1.765-1.192 2.412v0c-0.817 0.639-1.686 0.828-2.606 0.569-0.926-0.256-1.863-0.991-2.814-2.207v0c-0.938-1.2-1.421-2.283-1.449-3.248-0.038-0.966 0.352-1.769 1.169-2.408zM84.845 93.541c-0.409 0.319-0.551 0.764-0.427 1.333 0.12 0.564 0.555 1.326 1.305 2.285v0c0.758 0.969 1.392 1.575 1.902 1.818 0.52 0.244 0.981 0.208 1.384-0.107v0c0.419-0.328 0.573-0.768 0.461-1.322-0.112-0.554-0.551-1.321-1.317-2.301v0c-0.749-0.959-1.383-1.565-1.902-1.818-0.524-0.249-0.993-0.212-1.406 0.112z" fill="#ffffff" data-fill-palette-color="accent"></path><path d="M87.619 89.804l1.135-1.178 5.424 5.225 1.986-2.062 0.846 1.063-2.997 3.111z" fill="#ffffff" data-fill-palette-color="accent"></path><path d="M92.807 83.336c0.616-0.851 1.4-1.281 2.351-1.291 0.951-0.009 2.054 0.44 3.309 1.349v0c1.244 0.901 2.016 1.808 2.314 2.723 0.299 0.914 0.14 1.797-0.476 2.648v0c-0.608 0.84-1.391 1.263-2.347 1.269-0.96 0.011-2.065-0.436-3.315-1.341v0c-1.234-0.893-1.998-1.799-2.293-2.72-0.304-0.918-0.152-1.797 0.457-2.637zM93.809 84.061c-0.304 0.42-0.318 0.887-0.041 1.4 0.272 0.509 0.901 1.12 1.887 1.834v0c0.997 0.722 1.774 1.128 2.331 1.22 0.567 0.09 1-0.072 1.301-0.487v0c0.312-0.431 0.337-0.897 0.076-1.398-0.261-0.501-0.895-1.116-1.903-1.846v0c-0.986-0.714-1.763-1.12-2.331-1.22-0.572-0.094-1.012 0.072-1.32 0.497z" fill="#ffffff" data-fill-palette-color="accent"></path><path d="M96.662 76.87c0.224-0.438 0.502-0.785 0.835-1.041 0.33-0.265 0.724-0.474 1.183-0.628v0l0.383 1.114c-0.328 0.131-0.59 0.277-0.785 0.439-0.195 0.162-0.359 0.373-0.492 0.634v0c-0.257 0.503-0.234 1.012 0.072 1.526 0.302 0.52 1.006 1.063 2.113 1.63v0c0.782 0.4 1.419 0.658 1.912 0.775 0.49 0.123 0.872 0.128 1.146 0.015 0.284-0.116 0.509-0.338 0.675-0.664v0c0.176-0.343 0.241-0.706 0.197-1.086v0l-2.14-1.095-0.459 0.898-1.17-0.408 1.244-2.434 3.873 1.98c0.067 0.453 0.065 0.911-0.008 1.374-0.07 0.472-0.21 0.916-0.422 1.33v0c-0.502 0.983-1.212 1.546-2.13 1.69-0.914 0.153-2.079-0.133-3.494-0.856v0c-0.918-0.469-1.612-0.996-2.083-1.58-0.477-0.587-0.745-1.187-0.805-1.801-0.063-0.622 0.055-1.226 0.355-1.812z" fill="#ffffff" data-fill-palette-color="accent"></path><path d="M99.537 69.956l0.524-1.591 4.488 3.945 3.212 1.057-0.514 1.564-3.203-1.055-5.96 0.496 0.542-1.649 4.413-0.07z" fill="#ffffff" data-fill-palette-color="accent"></path><path d="M1.098 56.86c0-1.913 1.551-3.463 3.464-3.463 1.913 0 3.463 1.551 3.463 3.463 0 1.913-1.551 3.463-3.463 3.464-1.913 0-3.463-1.551-3.464-3.464z" fill="#ffffff" data-fill-palette-color="accent"></path><path d="M103.488 56.86c0-1.913 1.551-3.463 3.463-3.463 1.913 0 3.463 1.551 3.464 3.463 0 1.913-1.551 3.463-3.464 3.464-1.913 0-3.463-1.551-3.463-3.464z" fill="#ffffff" data-fill-palette-color="accent"></path></g></svg></g></svg></g></svg></g><defs></defs></svg><rect width="395.52" height="84.00509160419513" fill="none" stroke="none" visibility="hidden"></rect></g></svg></g></svg>